<svg width="170" height="68" viewBox="0 0 170 68" fill="none" xmlns="http://www.w3.org/2000/svg">
<path fill-rule="evenodd" clip-rule="evenodd" d="M75.5169 -2.08747e-06L75.5169 51.8159C75.5169 54.7935 77.9308 57.2074 80.9084 57.2074L98.9561 57.2074C101.934 57.2074 104.348 54.7935 104.348 51.8159L104.348 25.4822C104.348 22.5045 101.934 20.0906 98.9561 20.0906L84.257 20.0906L84.257 24.0633L98.9561 24.0633C99.7397 24.0633 100.375 24.6985 100.375 25.4822L100.375 51.8159C100.375 52.5995 99.7397 53.2347 98.9561 53.2347L80.9084 53.2347C80.1248 53.2347 79.4896 52.5995 79.4896 51.8159L79.4896 -2.17316e-06L75.5169 -2.08747e-06Z" fill="#1DD0B0"/>
<path fill-rule="evenodd" clip-rule="evenodd" d="M169.387 56.4129L146.515 56.4129C143.224 56.4129 140.556 53.7449 140.556 50.4538L140.556 26.7308C140.556 23.4397 143.224 20.7717 146.515 20.7717L163.428 20.7717C166.719 20.7717 169.387 23.4397 169.387 26.7308L169.387 36.3222C169.387 38.673 167.481 40.5787 165.13 40.5787L149.296 40.5787L149.296 36.6059L165.13 36.6059C165.287 36.6059 165.414 36.4789 165.414 36.3222L165.414 26.7308C165.414 25.6338 164.525 24.7445 163.428 24.7445L146.515 24.7445C145.418 24.7445 144.529 25.6338 144.529 26.7308L144.529 50.4538C144.529 51.5508 145.418 52.4401 146.515 52.4401L169.387 52.4401L169.387 56.4129Z" fill="#1DD0B0"/>
<path fill-rule="evenodd" clip-rule="evenodd" d="M136.924 56.4129L114.052 56.4129C110.761 56.4129 108.093 53.7449 108.093 50.4538L108.093 26.7308C108.093 23.4397 110.761 20.7717 114.052 20.7717L130.965 20.7717C134.256 20.7717 136.924 23.4397 136.924 26.7308L136.924 36.3222C136.924 38.673 135.018 40.5787 132.667 40.5787L116.833 40.5787L116.833 36.6059L132.667 36.6059C132.824 36.6059 132.951 36.4789 132.951 36.3222L132.951 26.7308C132.951 25.6338 132.062 24.7445 130.965 24.7445L114.052 24.7445C112.955 24.7445 112.066 25.6338 112.066 26.7308L112.066 50.4538C112.066 51.5508 112.955 52.4401 114.052 52.4401L136.924 52.4401L136.924 56.4129Z" fill="#1DD0B0"/>
<path d="M76.0234 63.4948H77.6368C77.9397 63.4948 78.1764 63.5801 78.3469 63.7506C78.521 63.9212 78.608 64.1492 78.608 64.4346C78.608 64.5704 78.5888 64.687 78.5506 64.7844C78.5123 64.8784 78.4635 64.9568 78.4044 65.0194C78.3452 65.0786 78.2773 65.1238 78.2007 65.1552C78.1241 65.183 78.0493 65.2004 77.9762 65.2074V65.2387C78.0493 65.2422 78.1294 65.2596 78.2164 65.2909C78.3069 65.3222 78.3904 65.3727 78.467 65.4423C78.5436 65.5085 78.608 65.5955 78.6602 65.7034C78.7124 65.8078 78.7385 65.9366 78.7385 66.0898C78.7385 66.236 78.7142 66.3735 78.6654 66.5023C78.6202 66.6311 78.5558 66.7424 78.4722 66.8364C78.3887 66.9304 78.2895 67.0052 78.1746 67.0609C78.0597 67.1132 77.9344 67.1393 77.7987 67.1393H76.0234V63.4948ZM76.6134 66.6328H77.6264C77.7795 66.6328 77.8996 66.5928 77.9867 66.5127C78.0737 66.4326 78.1172 66.3178 78.1172 66.1681V65.9906C78.1172 65.8409 78.0737 65.726 77.9867 65.646C77.8996 65.5659 77.7795 65.5259 77.6264 65.5259H76.6134V66.6328ZM76.6134 65.0351H77.5272C77.6734 65.0351 77.7865 64.9985 77.8666 64.9254C77.9466 64.8488 77.9867 64.7409 77.9867 64.6017V64.4346C77.9867 64.2954 77.9466 64.1892 77.8666 64.1161C77.7865 64.0395 77.6734 64.0013 77.5272 64.0013H76.6134V65.0351Z" fill="#1DD0B0"/>
<path d="M80.0552 67.1393H79.4652V63.4948H81.0368C81.364 63.4948 81.6216 63.594 81.8096 63.7924C81.9976 63.9873 82.0915 64.2536 82.0915 64.5913C82.0915 64.8523 82.0306 65.0699 81.9088 65.2439C81.7904 65.4145 81.6147 65.5346 81.3814 65.6042L82.1699 67.1393H81.512L80.781 65.6669H80.0552V67.1393ZM80.9951 65.1708C81.1447 65.1708 81.2614 65.1325 81.3449 65.056C81.4284 64.9759 81.4702 64.8628 81.4702 64.7166V64.4659C81.4702 64.3198 81.4284 64.2084 81.3449 64.1318C81.2614 64.0517 81.1447 64.0117 80.9951 64.0117H80.0552V65.1708H80.9951Z" fill="#1DD0B0"/>
<path d="M85.1631 67.1393L84.8342 66.1524H83.4714L83.1529 67.1393H82.5524L83.7951 63.4948H84.5365L85.7792 67.1393H85.1631ZM84.1658 64.0378H84.1397L83.6124 65.646H84.688L84.1658 64.0378Z" fill="#1DD0B0"/>
<path d="M88.7873 67.1393H86.0878V66.6119L88.0667 64.0169H86.1923V63.4948H88.7298V64.0221L86.751 66.6171H88.7873V67.1393Z" fill="#1DD0B0"/>
<path d="M89.2719 67.1393V66.6589H89.7679V63.9751H89.2719V63.4948H90.8592V63.9751H90.3579V66.6589H90.8592V67.1393H89.2719Z" fill="#1DD0B0"/>
<path d="M91.6007 67.1393V63.4948H92.1907V66.6171H93.6736V67.1393H91.6007Z" fill="#1DD0B0"/>
<path d="M95.5116 67.1393V63.4948H97.8455V64.0169H96.1016V65.0299H97.6836V65.552H96.1016V66.6171H97.8455V67.1393H95.5116Z" fill="#1DD0B0"/>
<path d="M98.6066 67.1393V63.4948H99.1966V66.6171H100.679V67.1393H98.6066Z" fill="#1DD0B0"/>
<path d="M101.284 67.1393V63.4948H103.618V64.0169H101.874V65.0299H103.456V65.552H101.874V66.6171H103.618V67.1393H101.284Z" fill="#1DD0B0"/>
<path d="M105.747 67.2019C105.27 67.2019 104.896 67.0418 104.624 66.7216C104.353 66.3978 104.217 65.9297 104.217 65.317C104.217 65.0107 104.252 64.7409 104.321 64.5077C104.391 64.2745 104.492 64.0778 104.624 63.9177C104.756 63.7576 104.916 63.6375 105.104 63.5574C105.296 63.4739 105.51 63.4321 105.747 63.4321C106.063 63.4321 106.328 63.5017 106.54 63.641C106.756 63.7802 106.925 63.9856 107.047 64.2571L106.551 64.5286C106.488 64.3546 106.391 64.2171 106.258 64.1161C106.13 64.0117 105.959 63.9595 105.747 63.9595C105.465 63.9595 105.244 64.0552 105.084 64.2467C104.923 64.4381 104.843 64.7026 104.843 65.0403V65.5938C104.843 65.9314 104.923 66.1959 105.084 66.3874C105.244 66.5788 105.465 66.6746 105.747 66.6746C105.966 66.6746 106.143 66.6189 106.279 66.5075C106.418 66.3926 106.521 66.2464 106.587 66.0689L107.062 66.3561C106.941 66.6206 106.77 66.8277 106.551 66.9774C106.331 67.1271 106.063 67.2019 105.747 67.2019Z" fill="#1DD0B0"/>
<path d="M109.04 64.0169V67.1393H108.45V64.0169H107.364V63.4948H110.126V64.0169H109.04Z" fill="#1DD0B0"/>
<path d="M111.291 67.1393H110.701V63.4948H112.273C112.6 63.4948 112.858 63.594 113.046 63.7924C113.234 63.9873 113.328 64.2536 113.328 64.5913C113.328 64.8523 113.267 65.0699 113.145 65.2439C113.027 65.4145 112.851 65.5346 112.618 65.6042L113.406 67.1393H112.748L112.017 65.6669H111.291V67.1393ZM112.231 65.1708C112.381 65.1708 112.497 65.1325 112.581 65.056C112.665 64.9759 112.706 64.8628 112.706 64.7166V64.4659C112.706 64.3198 112.665 64.2084 112.581 64.1318C112.497 64.0517 112.381 64.0117 112.231 64.0117H111.291V65.1708H112.231Z" fill="#1DD0B0"/>
<path d="M115.481 67.2019C115.245 67.2019 115.029 67.1619 114.834 67.0818C114.643 66.9983 114.477 66.8782 114.338 66.7216C114.202 66.5614 114.096 66.3648 114.02 66.1315C113.946 65.8948 113.91 65.6233 113.91 65.317C113.91 65.0107 113.946 64.7409 114.02 64.5077C114.096 64.271 114.202 64.0744 114.338 63.9177C114.477 63.7576 114.643 63.6375 114.834 63.5574C115.029 63.4739 115.245 63.4321 115.481 63.4321C115.718 63.4321 115.932 63.4739 116.124 63.5574C116.319 63.6375 116.484 63.7576 116.62 63.9177C116.759 64.0744 116.865 64.271 116.938 64.5077C117.015 64.7409 117.053 65.0107 117.053 65.317C117.053 65.6233 117.015 65.8948 116.938 66.1315C116.865 66.3648 116.759 66.5614 116.62 66.7216C116.484 66.8782 116.319 66.9983 116.124 67.0818C115.932 67.1619 115.718 67.2019 115.481 67.2019ZM115.481 66.6746C115.621 66.6746 115.748 66.6502 115.863 66.6015C115.981 66.5527 116.08 66.4831 116.16 66.3926C116.244 66.2986 116.308 66.1855 116.353 66.0532C116.399 65.921 116.421 65.7713 116.421 65.6042V65.0299C116.421 64.8628 116.399 64.7131 116.353 64.5808C116.308 64.4485 116.244 64.3372 116.16 64.2467C116.08 64.1527 115.981 64.0813 115.863 64.0326C115.748 63.9838 115.621 63.9595 115.481 63.9595C115.339 63.9595 115.21 63.9838 115.095 64.0326C114.98 64.0813 114.881 64.1527 114.797 64.2467C114.717 64.3372 114.655 64.4485 114.61 64.5808C114.564 64.7131 114.542 64.8628 114.542 65.0299V65.6042C114.542 65.7713 114.564 65.921 114.61 66.0532C114.655 66.1855 114.717 66.2986 114.797 66.3926C114.881 66.4831 114.98 66.5527 115.095 66.6015C115.21 66.6502 115.339 66.6746 115.481 66.6746Z" fill="#1DD0B0"/>
<path d="M118.77 65.1238L118.368 64.3511H118.353V67.1393H117.789V63.4948H118.447L119.637 65.5102L120.039 66.283H120.055V63.4948H120.619V67.1393H119.961L118.77 65.1238Z" fill="#1DD0B0"/>
<path d="M121.36 67.1393V66.6589H121.856V63.9751H121.36V63.4948H122.947V63.9751H122.446V66.6589H122.947V67.1393H121.36Z" fill="#1DD0B0"/>
<path d="M125.056 67.2019C124.579 67.2019 124.205 67.0418 123.934 66.7216C123.662 66.3978 123.526 65.9297 123.526 65.317C123.526 65.0107 123.561 64.7409 123.631 64.5077C123.701 64.2745 123.801 64.0778 123.934 63.9177C124.066 63.7576 124.226 63.6375 124.414 63.5574C124.606 63.4739 124.82 63.4321 125.056 63.4321C125.373 63.4321 125.638 63.5017 125.85 63.641C126.066 63.7802 126.235 63.9856 126.356 64.2571L125.86 64.5286C125.798 64.3546 125.7 64.2171 125.568 64.1161C125.439 64.0117 125.269 63.9595 125.056 63.9595C124.774 63.9595 124.553 64.0552 124.393 64.2467C124.233 64.4381 124.153 64.7026 124.153 65.0403V65.5938C124.153 65.9314 124.233 66.1959 124.393 66.3874C124.553 66.5788 124.774 66.6746 125.056 66.6746C125.276 66.6746 125.453 66.6189 125.589 66.5075C125.728 66.3926 125.831 66.2464 125.897 66.0689L126.372 66.3561C126.25 66.6206 126.08 66.8277 125.86 66.9774C125.641 67.1271 125.373 67.2019 125.056 67.2019Z" fill="#1DD0B0"/>
<path d="M128.231 67.1393V63.4948H130.565V64.0169H128.821V65.0299H130.404V65.552H128.821V66.6171H130.565V67.1393H128.231Z" fill="#1DD0B0"/>
<path d="M132.308 65.1238L131.906 64.3511H131.89V67.1393H131.327V63.4948H131.984L133.175 65.5102L133.577 66.283H133.593V63.4948H134.156V67.1393H133.499L132.308 65.1238Z" fill="#1DD0B0"/>
<path d="M136.406 64.0169V67.1393H135.816V64.0169H134.73V63.4948H137.492V64.0169H136.406Z" fill="#1DD0B0"/>
<path d="M138.067 67.1393V63.4948H140.401V64.0169H138.657V65.0299H140.239V65.552H138.657V66.6171H140.401V67.1393H138.067Z" fill="#1DD0B0"/>
<path d="M141.752 67.1393H141.162V63.4948H142.734C143.061 63.4948 143.319 63.594 143.507 63.7924C143.695 63.9873 143.789 64.2536 143.789 64.5913C143.789 64.8523 143.728 65.0699 143.606 65.2439C143.488 65.4145 143.312 65.5346 143.079 65.6042L143.867 67.1393H143.209L142.478 65.6669H141.752V67.1393ZM142.692 65.1708C142.842 65.1708 142.959 65.1325 143.042 65.056C143.126 64.9759 143.167 64.8628 143.167 64.7166V64.4659C143.167 64.3198 143.126 64.2084 143.042 64.1318C142.959 64.0517 142.842 64.0117 142.692 64.0117H141.752V65.1708H142.692Z" fill="#1DD0B0"/>
<path d="M145.809 64.0169V67.1393H145.219V64.0169H144.133V63.4948H146.895V64.0169H145.809Z" fill="#1DD0B0"/>
<path d="M149.405 67.1393L149.076 66.1524H147.713L147.394 67.1393H146.794L148.037 63.4948H148.778L150.021 67.1393H149.405ZM148.407 64.0378H148.381L147.854 65.646H148.929L148.407 64.0378Z" fill="#1DD0B0"/>
<path d="M150.429 67.1393V66.6589H150.925V63.9751H150.429V63.4948H152.016V63.9751H151.515V66.6589H152.016V67.1393H150.429Z" fill="#1DD0B0"/>
<path d="M153.739 65.1238L153.337 64.3511H153.321V67.1393H152.757V63.4948H153.415L154.606 65.5102L155.008 66.283H155.023V63.4948H155.587V67.1393H154.929L153.739 65.1238Z" fill="#1DD0B0"/>
<path d="M159.273 64.3511H159.247L158.96 64.9411L158.161 66.3978L157.362 64.9411L157.075 64.3511H157.049V67.1393H156.485V63.4948H157.184L158.161 65.3484H158.192L159.168 63.4948H159.837V67.1393H159.273V64.3511Z" fill="#1DD0B0"/>
<path d="M160.737 67.1393V63.4948H163.071V64.0169H161.327V65.0299H162.909V65.552H161.327V66.6171H163.071V67.1393H160.737Z" fill="#1DD0B0"/>
<path d="M164.814 65.1238L164.412 64.3511H164.396V67.1393H163.832V63.4948H164.49L165.681 65.5102L166.083 66.283H166.098V63.4948H166.662V67.1393H166.004L164.814 65.1238Z" fill="#1DD0B0"/>
<path d="M168.912 64.0169V67.1393H168.322V64.0169H167.236V63.4948H169.998V64.0169H168.912Z" fill="#1DD0B0"/>
<mask id="mask0_1_1082" style="mask-type:alpha" maskUnits="userSpaceOnUse" x="16" y="39" width="27" height="28">
<path fill-rule="evenodd" clip-rule="evenodd" d="M42.172 66.8733V62.3597H16.0193V66.8733L42.172 66.8733ZM40.457 65.1583V65.1584L17.7342 65.1584V64.0747H17.7343V65.1583L40.457 65.1583Z" fill="url(#paint0_linear_1_1082)"/>
<path fill-rule="evenodd" clip-rule="evenodd" d="M42.172 59.2727V54.7592H16.0193V59.2727L42.172 59.2727ZM40.457 57.5577V57.5578L17.7342 57.5578V56.4741H17.7343V57.5577L40.457 57.5577Z" fill="url(#paint1_linear_1_1082)"/>
<path fill-rule="evenodd" clip-rule="evenodd" d="M42.172 51.6722V47.1586H16.0193V51.6722L42.172 51.6722ZM40.457 49.9572V49.9573L17.7342 49.9573V48.8736H17.7343V49.9572L40.457 49.9572Z" fill="url(#paint2_linear_1_1082)"/>
<path fill-rule="evenodd" clip-rule="evenodd" d="M42.172 44.0408V39.5272H16.0193V44.0408L42.172 44.0408ZM40.457 42.3258V42.3259L17.7342 42.3259V41.2421H17.7343V42.3258L40.457 42.3258Z" fill="url(#paint3_linear_1_1082)"/>
</mask>
<g mask="url(#mask0_1_1082)">
<path d="M41.3575 57.7651V49.0602C41.3575 48.1144 40.8239 47.2495 39.9786 46.8252L34.5048 44.0779C33.6595 43.6536 33.1259 42.7888 33.1259 41.843V26.4649C33.1259 25.0838 32.0063 23.9642 30.6253 23.9642H27.3948C26.0138 23.9642 24.8942 25.0838 24.8942 26.4648V41.9764C24.8942 42.4758 24.7447 42.9638 24.4648 43.3775L24.3248 43.5844C24.0529 43.9864 23.6699 44.3005 23.2225 44.4886L18.4086 46.5119C17.4806 46.9019 16.8769 47.8104 16.8769 48.8171V57.6644C16.8769 58.5486 17.3438 59.367 18.1049 59.817L28.5892 66.0154C29.422 66.5078 30.4641 66.4755 31.2649 65.9327L40.2601 59.835C40.9465 59.3697 41.3575 58.5944 41.3575 57.7651Z" fill="url(#paint4_linear_1_1082)"/>
</g>
<path fill-rule="evenodd" clip-rule="evenodd" d="M28.4172 15.6927L2.81134 29.4172C1.96982 29.8682 1.44462 30.7456 1.44462 31.7004V41.7959C1.44462 42.6774 1.89282 43.4983 2.63428 43.975L10.7347 49.1824C11.5406 49.7005 12.5667 49.7315 13.4024 49.2629L22.9259 43.9235C23.7433 43.4652 24.2495 42.6011 24.2495 41.6639V40.2494C24.2495 39.8507 24.5727 39.5275 24.9714 39.5275C25.3702 39.5275 25.6934 39.8507 25.6934 40.2494V41.6639C25.6934 43.1235 24.9051 44.4692 23.632 45.183L14.1085 50.5224C12.807 51.2521 11.209 51.2038 9.95392 50.397L1.85349 45.1895C0.698761 44.4472 0.000732422 43.1687 0.000732422 41.7959V31.7004C0.000732422 30.2134 0.818665 28.847 2.12924 28.1446L28.1127 14.2177C28.4054 14.0608 28.7579 14.1263 28.9763 14.3557L55.421 28.1907C56.7514 28.8867 57.5852 30.264 57.5852 31.7654V41.8384C57.5852 43.2111 56.8872 44.4897 55.7325 45.232L47.632 50.4394C46.3769 51.2463 44.779 51.2945 43.4775 50.5648L33.954 45.2255C32.6809 44.5117 31.8926 43.166 31.8926 41.7064V40.207C31.8926 39.8083 32.2158 39.485 32.6145 39.485C33.0133 39.485 33.3365 39.8083 33.3365 40.207V41.7064C33.3365 42.6436 33.8427 43.5077 34.6601 43.966L44.1836 49.3054C45.0193 49.7739 46.0453 49.743 46.8513 49.2249L54.9517 44.0175C55.6931 43.5408 56.1414 42.7198 56.1414 41.8384V31.7654C56.1414 30.8014 55.606 29.917 54.7517 29.4701L28.4172 15.6927Z" fill="url(#paint5_linear_1_1082)"/>
<path fill-rule="evenodd" clip-rule="evenodd" d="M5.45895 31.5171L28.5164 19.1609L52.1311 31.5255C52.7329 31.8406 53.1101 32.4639 53.1101 33.1433V40.5457C53.1101 41.167 52.7942 41.7458 52.2715 42.0818L46.3223 45.9062C45.7542 46.2714 45.0309 46.2933 44.4418 45.963L37.4393 42.037C36.8631 41.7139 36.5063 41.1048 36.5063 40.4442V34.6999C37.3716 34.4642 38.0078 33.6729 38.0078 32.7329C38.0078 31.6071 37.0952 30.6944 35.9694 30.6944C34.8436 30.6944 33.931 31.6071 33.931 32.7329C33.931 33.5328 34.3918 34.2251 35.0624 34.5589V40.4442C35.0624 41.6272 35.7013 42.7179 36.7332 43.2965L43.7357 47.2224C44.7906 47.8139 46.0858 47.7748 47.1031 47.1208L53.0523 43.2963C53.9882 42.6946 54.554 41.6583 54.554 40.5457V33.1433C54.554 31.9267 53.8786 30.8107 52.8008 30.2464L28.8333 17.697C28.5694 17.5588 28.2591 17.6 28.0419 17.777L4.77694 30.2444C3.71457 30.8137 3.05151 31.9213 3.05151 33.1266V40.5457C3.05151 41.6584 3.61729 42.6947 4.55323 43.2963L10.5024 47.1208C11.5197 47.7748 12.8149 47.8139 13.8698 47.2225L20.8723 43.2965C21.9042 42.7179 22.5431 41.6272 22.5431 40.4442V34.5608C23.2159 34.2278 23.6784 33.5344 23.6784 32.7329C23.6784 31.6071 22.7658 30.6944 21.64 30.6944C20.5142 30.6944 19.6016 31.6071 19.6016 32.7329C19.6016 33.6714 20.2359 34.4619 21.0992 34.6988V40.4442C21.0992 41.1048 20.7424 41.7139 20.1662 42.037L13.1637 45.963C12.5746 46.2933 11.8513 46.2715 11.2832 45.9062L5.33402 42.0818C4.81135 41.7458 4.4954 41.1671 4.4954 40.5457V33.1266C4.4954 32.4535 4.86567 31.835 5.45895 31.5171Z" fill="url(#paint6_linear_1_1082)"/>
<path fill-rule="evenodd" clip-rule="evenodd" d="M18.5775 4.44102C18.5158 4.44665 18.4532 4.44953 18.39 4.44953C17.2642 4.44953 16.3516 3.5369 16.3516 2.41111C16.3516 1.28531 17.2642 0.372681 18.39 0.372681C19.5158 0.372681 20.4284 1.28531 20.4284 2.41111C20.4284 2.95077 20.2187 3.44146 19.8763 3.80611L22.08 8.94808L26.6099 6.036C27.6405 5.37352 28.9525 5.33392 30.0211 5.93303L35.1319 8.79844L37.3804 3.72125C37.0828 3.36696 36.9036 2.90996 36.9036 2.41111C36.9036 1.28531 37.8163 0.372681 38.942 0.372681C40.0678 0.372681 40.9805 1.28531 40.9805 2.41111C40.9805 3.5369 40.0678 4.44953 38.942 4.44953C38.8416 4.44953 38.7429 4.44227 38.6464 4.42825L36.3969 9.50769L39.5445 11.2724C40.5898 11.8585 41.2371 12.9634 41.2371 14.1617L41.2371 20.8846L29.8436 15.3186C28.8671 14.8416 27.7189 14.8739 26.7708 15.405L16.9883 20.8846L16.9883 14.0298C16.9883 12.9027 17.5614 11.8529 18.5095 11.2434L20.8484 9.73981L18.5775 4.44102Z" fill="url(#paint7_linear_1_1082)"/>
<defs>
<linearGradient id="paint0_linear_1_1082" x1="40.4571" y1="64.6165" x2="17.7343" y2="64.6165" gradientUnits="userSpaceOnUse">
<stop stop-color="#7B6CFB"/>
<stop offset="1" stop-color="#28F8FC"/>
</linearGradient>
<linearGradient id="paint1_linear_1_1082" x1="40.4571" y1="57.0159" x2="17.7343" y2="57.0159" gradientUnits="userSpaceOnUse">
<stop stop-color="#7B6CFB"/>
<stop offset="1" stop-color="#28F8FC"/>
</linearGradient>
<linearGradient id="paint2_linear_1_1082" x1="40.4571" y1="49.4154" x2="17.7343" y2="49.4154" gradientUnits="userSpaceOnUse">
<stop stop-color="#7B6CFB"/>
<stop offset="1" stop-color="#28F8FC"/>
</linearGradient>
<linearGradient id="paint3_linear_1_1082" x1="40.4571" y1="41.784" x2="17.7343" y2="41.784" gradientUnits="userSpaceOnUse">
<stop stop-color="#7B6CFB"/>
<stop offset="1" stop-color="#28F8FC"/>
</linearGradient>
<linearGradient id="paint4_linear_1_1082" x1="27.4573" y1="18.2512" x2="26.9367" y2="66.7856" gradientUnits="userSpaceOnUse">
<stop stop-color="#4438AA"/>
<stop offset="1" stop-color="#1DD0B0"/>
</linearGradient>
<linearGradient id="paint5_linear_1_1082" x1="33.7063" y1="2.07144" x2="33.4929" y2="67.0456" gradientUnits="userSpaceOnUse">
<stop stop-color="#4438AA"/>
<stop offset="1" stop-color="#1DD0B0"/>
</linearGradient>
<linearGradient id="paint6_linear_1_1082" x1="32.295" y1="5.21418" x2="32.0134" y2="66.7054" gradientUnits="userSpaceOnUse">
<stop stop-color="#4438AA"/>
<stop offset="1" stop-color="#1DD0B0"/>
</linearGradient>
<linearGradient id="paint7_linear_1_1082" x1="30.4817" y1="0.372681" x2="30.9176" y2="67.5568" gradientUnits="userSpaceOnUse">
<stop stop-color="#4438AA"/>
<stop offset="0.86498" stop-color="#1DD0B0"/>
</linearGradient>
</defs>
</svg>
